<svg width="70" height="60" viewBox="0 0 70 60" fill="none" xmlns="http://www.w3.org/2000/svg">
<path d="M36.6793 14.6021C36.292 14.4866 36.0714 14.0794 36.1869 13.6921C37.5323 9.17107 41.7225 5.85156 46.7082 5.85156C47.1123 5.85156 47.44 6.17927 47.44 6.5833C47.44 6.98732 47.1123 7.31504 46.7082 7.31504C42.5296 7.31504 38.7799 10.1087 37.5893 14.1091C37.4749 14.4959 37.0682 14.718 36.6794 14.602L36.6793 14.6021Z" fill="#0C3B2E"/>
<path d="M56.9522 42.4384H52.5618C52.1578 42.4384 51.8301 42.1107 51.8301 41.7067C51.8301 41.3027 52.1578 40.9749 52.5618 40.9749H56.9522C63.004 40.9749 67.9281 36.0509 67.9281 29.999C67.9281 23.9471 63.004 19.023 56.9522 19.023H56.8466C56.6344 19.023 56.4326 18.9311 56.2936 18.7706C56.1546 18.6101 56.0918 18.3974 56.1222 18.1873C56.1875 17.7315 56.2204 17.2737 56.2204 16.8279C56.2204 11.5829 51.9528 7.31531 46.7079 7.31531C44.6674 7.31531 42.7215 7.95296 41.0803 9.15978C40.7196 9.42478 40.2074 9.30718 39.9989 8.91047C35.3509 0.0596993 23.2107 -1.12887 16.9166 6.57053C14.2652 9.81417 13.2234 14.0336 14.0582 18.146C14.1502 18.6002 13.8026 19.0236 13.3411 19.0236H13.0479C6.996 19.0236 2.07193 23.9477 2.07193 29.9996C2.07193 36.0514 6.996 40.9755 13.0479 40.9755H17.4382C17.8422 40.9755 18.1699 41.3032 18.1699 41.7072C18.1699 42.1113 17.8422 42.439 17.4382 42.439H13.0479C6.1889 42.439 0.608398 36.8585 0.608398 29.9995C0.608398 23.3329 5.87995 17.8742 12.4735 17.5731C11.8541 13.3066 13.0385 9.00295 15.7835 5.64437C22.5222 -2.5996 35.4364 -1.67556 40.8955 7.51707C42.6371 6.42522 44.6299 5.85244 46.7076 5.85244C53.0622 5.85244 58.0976 11.261 57.657 17.58C64.1897 17.9463 69.3913 23.3763 69.3913 29.999C69.3913 36.8585 63.8108 42.4384 56.9518 42.4384L56.9522 42.4384Z" fill="#0C3B2E"/>
<path d="M34.9019 59.587C24.8149 59.587 16.6084 51.3806 16.6084 41.2935C16.6084 31.2065 24.8148 23 34.9019 23C44.989 23 53.1954 31.2064 53.1954 41.2935C53.1954 51.3804 44.989 59.587 34.9019 59.587ZM34.9019 24.4638C25.622 24.4638 18.0722 32.0137 18.0722 41.2935C18.0722 50.5733 25.6221 58.1232 34.9019 58.1232C44.1816 58.1232 51.7316 50.5732 51.7316 41.2935C51.7316 32.0136 44.1816 24.4638 34.9019 24.4638Z" fill="#0C3B2E"/>
<path d="M35.2364 49.1934C34.9406 49.1934 34.7007 48.9534 34.7007 48.6577V34.7291C34.7007 34.4333 34.9406 34.1934 35.2364 34.1934C35.5322 34.1934 35.7721 34.4333 35.7721 34.7291V48.6577C35.7721 48.9538 35.5322 49.1934 35.2364 49.1934Z" fill="#0C3B2E"/>
<path d="M39.5222 39.5525C39.3852 39.5525 39.2478 39.5 39.1433 39.3956L35.2365 35.4887L31.3297 39.3956C31.1207 39.6049 30.7813 39.6049 30.572 39.3956C30.3627 39.1863 30.3627 38.8472 30.572 38.6379L34.8577 34.3523C35.0666 34.143 35.406 34.143 35.6153 34.3523L39.9009 38.6379C40.1103 38.8472 40.1103 39.1863 39.9009 39.3956C39.7965 39.5004 39.6591 39.5525 39.5221 39.5525H39.5222Z" fill="#0C3B2E"/>
</svg>
