<svg width="121" height="120" viewBox="0 0 121 120" fill="none" xmlns="http://www.w3.org/2000/svg">
<path d="M61.8673 103.017V114.264L3.05469 80.3063V69.0596L61.8673 103.017Z" stroke="#0C3B2E" stroke-width="0.638298" stroke-linecap="round" stroke-linejoin="round"/>
<path d="M61.8673 85.7204V91.7716L13.4974 63.8397L3.05469 57.8141V46.5674L23.9398 58.6183L28.5866 61.3119L49.1143 73.1587C51.0036 75.5587 52.9951 77.8184 55.127 79.9376C57.2462 82.044 59.4929 83.9843 61.8673 85.7204Z" stroke="#0C3B2E" stroke-width="0.638298" stroke-linecap="round" stroke-linejoin="round"/>
<path d="M38.5823 55.834L13.4974 41.3447L3.05469 35.3191V24.0723L23.9398 36.1233L28.5866 38.8169L33.9229 41.8935C34.4974 44.2935 35.1483 46.6297 35.8887 48.9276C35.927 49.068 35.9781 49.1957 36.0292 49.3361C36.7185 51.5063 37.5866 53.6765 38.5823 55.834Z" stroke="#0C3B2E" stroke-width="0.638298" stroke-linecap="round" stroke-linejoin="round"/>
<path d="M87.3991 90.252V101.499L61.8672 114.265V103.018L76.9567 95.4731L87.3991 90.252Z" fill="#5C7C73" stroke="#0C3B2E" stroke-width="0.638298" stroke-linecap="round" stroke-linejoin="round"/>
<path d="M87.3992 90.2507L76.9568 95.4718L61.8673 103.017L3.05469 69.0592L13.4974 63.8379L61.8673 91.7698L66.527 89.4464L76.9568 84.2251L87.3992 90.2507Z" fill="#FFBA00"/>
<path d="M85.8919 43.0295C85.3429 41.9316 84.7429 40.8338 84.0919 39.7231C79.5599 31.8976 74.1344 26.038 67.8025 22.1189C67.4578 21.9018 67.1131 21.6976 66.7557 21.4933C60.5514 17.9061 55.2025 17.1018 50.6706 19.0806L49.4194 19.7061C48.4109 20.2806 47.5046 20.9698 46.7259 21.774C44.5812 23.9187 43.2153 26.8804 42.6153 30.6592C42.3727 32.14 42.2578 33.7358 42.2578 35.4592C42.2578 36.1996 42.2833 36.9528 42.3344 37.6932C42.411 39.123 42.577 40.5655 42.8195 42.0209C43.3812 45.3783 44.377 48.7741 45.8068 52.2209C46.3174 53.4719 46.8919 54.7231 47.5429 55.9869C48.1046 57.1486 48.7428 58.3103 49.4194 59.4848C51.6024 63.2508 53.9899 66.5572 56.5813 69.4167C59.6835 72.8252 63.0663 75.5955 66.7557 77.7274C68.7982 78.9018 70.7259 79.7827 72.5897 80.3572H72.6025C76.9302 81.6976 80.7599 81.4166 84.0919 79.5145C84.7812 79.1315 85.4068 78.6848 85.994 78.1869C86.5046 77.7657 86.9768 77.306 87.3981 76.7953C89.8875 73.9102 91.177 69.7613 91.2536 64.3485C91.2663 64.1443 91.2663 63.9529 91.2663 63.7486C91.2663 57.021 89.4791 50.1146 85.8919 43.0295ZM68.4791 66.621C67.9812 66.9018 67.4195 66.8508 66.7557 66.4806C66.2195 66.1614 65.7216 65.6891 65.3131 65.0508C65.211 64.9231 65.1215 64.7827 65.0449 64.6423C64.5598 63.7997 64.3046 62.9953 64.3046 62.2549C64.3046 61.5145 64.5598 60.9911 65.0449 60.7102C65.53 60.4294 66.1046 60.4804 66.7557 60.8506C67.4195 61.2336 67.9812 61.8465 68.4791 62.6891C68.594 62.9061 68.7089 63.1103 68.7982 63.3146C69.0663 63.9274 69.2066 64.5146 69.2066 65.0763C69.2066 65.8295 68.9642 66.3401 68.4791 66.621ZM69.2066 56.6508L64.3046 53.8166V31.323L69.2066 34.1572V56.6508Z" stroke="#0C3B2E" stroke-width="0.638298" stroke-linecap="round" stroke-linejoin="round"/>
<path d="M69.2067 34.1574V51.3659L64.3047 53.8169V31.3232L69.2067 34.1574Z" fill="#0C3B2E" stroke="#0C3B2E" stroke-width="0.638298" stroke-linecap="round" stroke-linejoin="round"/>
<path d="M69.2067 51.3672V56.6523L64.3047 53.8181L69.2067 51.3672Z" fill="#FFD154" stroke="#0C3B2E" stroke-width="0.638298" stroke-linecap="round" stroke-linejoin="round"/>
<path d="M45.799 52.22L43.2331 53.5094L38.5735 55.8328C37.5778 53.6754 36.7097 51.5051 36.0203 49.3349C35.9693 49.1945 35.9182 49.0669 35.8799 48.9264C35.1395 46.6286 34.4885 44.2924 33.9141 41.8924L38.5607 39.569L42.3268 37.6924C42.4034 39.1222 42.5694 40.5647 42.8119 42.02C43.3736 45.3775 44.3693 48.7732 45.799 52.22Z" stroke="#0C3B2E" stroke-width="0.638298" stroke-linecap="round" stroke-linejoin="round"/>
<path d="M42.6164 30.6597C42.3738 32.1405 42.2589 33.7364 42.2589 35.4598C42.2589 36.2002 42.2845 36.9534 42.3355 37.6938L38.5695 39.5704L33.9229 41.8938L28.5866 38.8172L23.9398 36.1236L3.05469 24.0726L28.5866 11.3066L46.727 21.7747C44.5823 23.9194 43.2164 26.8809 42.6164 30.6597Z" fill="#FFBA00"/>
<path d="M56.5825 69.418L53.7611 70.8351L49.1143 73.1583L28.5866 61.3115L23.9398 58.6179L3.05469 46.567L13.4974 41.3457L38.5823 55.8351L43.2419 53.5115L47.544 55.9883C48.1057 57.15 48.7439 58.3117 49.4205 59.4861C51.6035 63.2521 53.991 66.5585 56.5825 69.418Z" fill="#FFBA00"/>
<path d="M69.2067 65.0774C69.2067 65.8306 68.9643 66.3412 68.4792 66.6221C67.9813 66.9029 67.4196 66.8519 66.7558 66.4817C66.2196 66.1625 65.7217 65.6902 65.3132 65.0519C65.2111 64.9242 65.1216 64.7839 65.045 64.6435C64.5599 63.8009 64.3047 62.9965 64.3047 62.2561C64.3047 61.5157 64.5599 60.9923 65.045 60.7114C65.5301 60.4306 66.1047 60.4817 66.7558 60.8519C67.4196 61.2348 67.9813 61.8476 68.4792 62.6902C68.594 62.9072 68.7089 63.1114 68.7983 63.3157C69.0664 63.9285 69.2067 64.5157 69.2067 65.0774Z" fill="#FFBA00" stroke="#0C3B2E" stroke-width="0.638298" stroke-linecap="round" stroke-linejoin="round"/>
<path d="M72.4766 79.9403L71.2255 80.5658L61.7532 85.302C59.3787 83.5658 57.132 81.6254 55.0129 79.519C52.881 77.3999 50.8894 75.1403 49 72.7403L53.6468 70.4169L56.4682 69C59.5703 72.4085 62.9532 75.1787 66.6426 77.3106C68.6851 78.4851 70.6128 79.3658 72.4766 79.9403Z" stroke="#0C3B2E" stroke-width="0.638298" stroke-linecap="round" stroke-linejoin="round"/>
<path d="M87.3991 77.8691V79.0053L76.9567 84.2266L66.5268 89.4477L61.8672 91.7713V85.7201L71.3397 80.9839L72.5906 80.3584H72.6034C76.931 81.6988 80.7608 81.4179 84.0927 79.5158L86.3397 78.3924L87.3991 77.8691Z" fill="#FFBA00" stroke="#0C3B2E" stroke-width="0.638298" stroke-linecap="round" stroke-linejoin="round"/>
<path d="M116.799 50.9822C116.799 58.7694 114.412 64.0163 109.625 66.7482L108.45 67.3354L87.3994 77.8673L86.3398 78.3906L84.093 79.5141C84.7824 79.1311 85.4079 78.6843 85.9952 78.1865C86.5058 77.7652 86.9781 77.3055 87.3994 76.7948C89.8888 73.9097 91.1781 69.7608 91.2547 64.348C91.2675 64.1438 91.2675 63.9524 91.2675 63.7482C91.2675 57.0205 89.4804 50.1141 85.8932 43.029C85.3442 41.9311 84.7441 40.8333 84.093 39.7226C79.5611 31.8971 74.1356 26.0375 67.8037 22.1184C67.459 21.9014 67.1144 21.6971 66.757 21.4929C60.5527 17.9056 55.2038 17.1014 50.6719 19.0801L74.9526 6.93964C79.7398 4.20771 85.5102 4.80775 92.2889 8.7269C99.0676 12.6333 104.85 18.7099 109.625 26.9567C114.412 35.2035 116.799 43.2077 116.799 50.9822Z" fill="#0C3B2E"/>
</svg>
