<svg width="19" height="20" viewBox="0 0 19 20" fill="none" xmlns="http://www.w3.org/2000/svg">
<path d="M9.47301 2.24722C11.8052 2.24722 12.0814 2.25687 13.0028 2.3033C13.5567 2.31079 14.1054 2.4232 14.625 2.63564C15.0018 2.79622 15.3439 3.04222 15.6295 3.35779C15.9151 3.67335 16.1377 4.05151 16.283 4.4679C16.4752 5.04208 16.5769 5.64844 16.5837 6.26062C16.6253 7.2788 16.6344 7.58402 16.6344 10.1614C16.6344 12.7388 16.6257 13.044 16.5837 14.0622C16.5769 14.6744 16.4752 15.2807 16.283 15.8549C16.1377 16.2713 15.9151 16.6495 15.6295 16.965C15.3439 17.2806 15.0018 17.5266 14.625 17.6872C14.1054 17.8996 13.5567 18.012 13.0028 18.0195C12.0819 18.0655 11.8057 18.0756 9.47301 18.0756C7.14036 18.0756 6.86416 18.0659 5.94325 18.0195C5.3893 18.012 4.84061 17.8996 4.32104 17.6872C3.94425 17.5266 3.60207 17.2806 3.31652 16.965C3.03096 16.6495 2.80837 16.2713 2.66306 15.8549C2.47082 15.2807 2.36911 14.6744 2.36233 14.0622C2.32073 13.044 2.31158 12.7388 2.31158 10.1614C2.31158 7.58402 2.32032 7.2788 2.36233 6.26062C2.36911 5.64844 2.47082 5.04208 2.66306 4.4679C2.80837 4.05151 3.03096 3.67335 3.31652 3.35779C3.60207 3.04222 3.94425 2.79622 4.32104 2.63564C4.84061 2.4232 5.3893 2.31079 5.94325 2.3033C6.86458 2.25733 7.14077 2.24722 9.47301 2.24722ZM9.47301 0.507812C7.10209 0.507812 6.80344 0.518845 5.87171 0.565731C5.14672 0.581667 4.42944 0.733365 3.75035 1.01437C3.16781 1.25693 2.64018 1.63703 2.20426 2.12816C1.75945 2.61007 1.4152 3.1935 1.19558 3.83768C0.941304 4.58815 0.804035 5.38083 0.789615 6.18202C0.74802 7.21077 0.738037 7.54081 0.738037 10.1609C0.738037 12.7811 0.74802 13.1111 0.790447 14.1408C0.804867 14.942 0.942136 15.7347 1.19642 16.4851C1.41579 17.1292 1.75975 17.7127 2.20426 18.1947C2.64042 18.6859 3.16835 19.066 3.75119 19.3084C4.43027 19.5894 5.14755 19.7411 5.87254 19.7571C6.80427 19.803 7.10167 19.815 9.47384 19.815C11.846 19.815 12.1434 19.804 13.0751 19.7571C13.8001 19.7411 14.5174 19.5894 15.1965 19.3084C15.7766 19.06 16.3033 18.6804 16.7431 18.1941C17.1829 17.7078 17.526 17.1254 17.7504 16.4842C18.0047 15.7337 18.142 14.9411 18.1564 14.1399C18.198 13.1111 18.208 12.7811 18.208 10.1609C18.208 7.54081 18.198 7.21077 18.1556 6.1811C18.1412 5.37991 18.0039 4.58723 17.7496 3.83676C17.5302 3.19266 17.1863 2.60924 16.7418 2.12724C16.3056 1.636 15.7777 1.25589 15.1948 1.01345C14.5158 0.732446 13.7985 0.580748 13.0735 0.564812C12.1426 0.518845 11.8439 0.507812 9.47301 0.507812Z" fill="#051913"/>
<path d="M9.47146 5.20312C8.58429 5.20312 7.71704 5.49385 6.97938 6.03855C6.24173 6.58324 5.6668 7.35744 5.32729 8.26323C4.98778 9.16903 4.89895 10.1657 5.07203 11.1273C5.24511 12.0889 5.67232 12.9722 6.29965 13.6654C6.92697 14.3587 7.72623 14.8308 8.59636 15.0221C9.46648 15.2134 10.3684 15.1152 11.188 14.74C12.0077 14.3648 12.7082 13.7295 13.2011 12.9143C13.694 12.0991 13.9571 11.1407 13.9571 10.1602C13.9571 8.84553 13.4845 7.58467 12.6433 6.65503C11.8021 5.72539 10.6611 5.20312 9.47146 5.20312ZM9.47146 13.378C8.89559 13.378 8.33265 13.1892 7.85383 12.8357C7.37501 12.4821 7.00181 11.9796 6.78144 11.3916C6.56106 10.8036 6.5034 10.1567 6.61575 9.5325C6.72809 8.90832 7.0054 8.33498 7.41261 7.88497C7.81981 7.43497 8.33862 7.12851 8.90342 7.00436C9.46823 6.8802 10.0537 6.94392 10.5857 7.18746C11.1177 7.431 11.5725 7.84342 11.8924 8.37257C12.2124 8.90172 12.3831 9.52384 12.3831 10.1602C12.3831 11.0136 12.0764 11.8321 11.5303 12.4355C10.9843 13.0389 10.2437 13.378 9.47146 13.378Z" fill="#051913"/>
<path d="M14.1349 6.16832C14.7138 6.16832 15.1831 5.64969 15.1831 5.00994C15.1831 4.37019 14.7138 3.85156 14.1349 3.85156C13.556 3.85156 13.0867 4.37019 13.0867 5.00994C13.0867 5.64969 13.556 6.16832 14.1349 6.16832Z" fill="#051913"/>
</svg>
