<svg width="15" height="14" viewBox="0 0 15 14" fill="none" xmlns="http://www.w3.org/2000/svg">
<path d="M14.6782 2.21541C14.1379 2.48079 13.5676 2.64665 12.9672 2.74617C13.5676 2.3481 14.0479 1.71782 14.258 0.954862C13.6877 1.31976 13.0573 1.58514 12.3669 1.751C11.8266 1.12072 11.0462 0.722656 10.2057 0.722656C8.58475 0.722656 7.264 2.18224 7.264 3.97354C7.264 4.23892 7.29402 4.47112 7.35405 4.70333C4.92267 4.57064 2.73142 3.27692 1.26058 1.28659C1.02045 1.78417 0.870361 2.31493 0.870361 2.91203C0.870361 4.03989 1.38065 5.03505 2.19111 5.63215C1.71084 5.59898 1.26058 5.46629 0.840344 5.23409V5.26726C0.840344 6.85953 1.86093 8.18642 3.21169 8.48497C2.97156 8.55132 2.7014 8.58449 2.43125 8.58449C2.25115 8.58449 2.04103 8.55132 1.86093 8.51814C2.25115 9.81186 3.33176 10.7739 4.6225 10.7739C3.60192 11.6363 2.3412 12.1671 0.960413 12.1671C0.720276 12.1671 0.480139 12.1671 0.27002 12.1339C1.59077 13.0627 3.12164 13.5935 4.8026 13.5935C10.2357 13.5935 13.2074 8.61766 13.2074 4.30526C13.2074 4.17257 13.2074 4.00671 13.2074 3.87402C13.7777 3.44278 14.288 2.87886 14.6782 2.21541Z" fill="#051913"/>
</svg>
